PathFileType	4	(X/Y/Z)	C:\Users\WrightLab\Desktop\Jo\P4V123.trc
DataRate	CameraRate	NumFrames	NumMarkers	Units	OrigDataRate	OrigDataStartFrame	OrigNumFrames
100.00	100.00	       11	19	mm	100.00	127	       504
Frame#	Time	Headset_Front			Headset_Back			Headset_Left			Headset_Right			Left_Shoulder			Right_Shoulder			Sternum			C7			Left Elbow			Right Elbow			Left Wrist			Right Wrist			Left ASIS			Right ASIS			S2			Left Knee			Right Knee			Left Ankle			Right Ankle			
		X1	Y1	Z1	X2	Y2	Z2	X3	Y3	Z3	X4	Y4	Z4	X5	Y5	Z5	X6	Y6	Z6	X7	Y7	Z7	X8	Y8	Z8	X9	Y9	Z9	X10	Y10	Z10	X11	Y11	Z11	X12	Y12	Z12	X13	Y13	Z13	X14	Y14	Z14	X15	Y15	Z15	X16	Y16	Z16	X17	Y17	Z17	X18	Y18	Z18	X19	Y19	Z19	

127	1.260	134.42543	1806.23193	1249.72986	-0.38581	1693.32629	1222.73547							16.03995	1514.40869	1273.28210	309.12057	1541.59058	1239.61548	141.37039	1462.72131	1149.08496	164.68451	1568.72900	1305.88428	-241.76892	1330.42932	1138.26880	499.72159	1223.66956	1169.68640	-344.67981	1252.98743	849.10468	530.15649	993.14600	972.02325	27.13289	1009.45166	1196.46484	352.68658	1051.70996	1132.31958				109.87170	542.77948	1322.91858	371.38025	591.43011	1036.34631	221.70093	110.48785	1577.28137	342.67624	84.82499	931.89001	
128	1.270	133.69136	1804.44116	1239.93994	-0.43741	1691.35522	1212.28137							16.50029	1512.00671	1263.42871	309.08224	1539.96875	1228.61523	140.12668	1461.13489	1138.26685	164.41899	1567.05383	1295.86304	-240.96866	1324.80334	1129.63013	499.27948	1223.19885	1155.46985	-343.98248	1243.43982	842.11761	528.37732	994.81116	954.56287	26.78454	1008.12720	1186.41821	351.92172	1050.65100	1118.66919				108.68946	542.64539	1315.02417	369.47125	590.96533	1019.56940	221.89420	113.47843	1575.43188	340.25906	82.01665	925.21552	
129	1.280	132.59474	1802.61633	1230.16992	-1.43742	1689.64758	1201.89539							16.04086	1509.82898	1253.73706	308.84607	1538.37378	1217.12317	140.47993	1459.46545	1128.84961	164.03647	1565.59204	1285.84033	-239.68130	1319.26306	1121.03735	498.93576	1222.95190	1139.62341	-342.69580	1233.53003	834.37152	526.27734	996.41016	937.15784	26.19399	1006.78473	1176.20715	351.28571	1049.59155	1105.43262	206.07216	1053.92261	1325.43237	106.99593	541.67590	1306.06421	366.72195	590.45618	1003.43713	222.04803	116.52840	1573.44983	338.54886	81.16146	921.08063	
130	1.290	132.12177	1801.08167	1220.42090	-1.94249	1688.06201	1191.29700							16.36551	1507.88623	1243.75037	308.15048	1537.63416	1206.83154	139.73050	1457.80725	1117.74146	164.56114	1563.85547	1275.79114	-238.26656	1313.66663	1112.58350	498.91602	1222.77686	1125.24426	-341.91980	1223.11230	827.80084	523.70526	998.25897	919.75592	25.48958	1005.51123	1165.97119	348.77286	1047.81946	1093.95630	207.59319	1053.37402	1313.90686	105.61058	541.39807	1296.65125	363.56076	589.30981	989.14673	220.83310	121.00769	1571.78076	337.88223	79.83436	916.90057	
131	1.300	132.04974	1799.58130	1210.49695	-2.18275	1686.44312	1180.80286							16.47345	1505.88086	1234.26990	308.26483	1536.50366	1196.22339	139.32626	1456.90881	1107.79590	164.40147	1562.20032	1265.87170	-236.79871	1308.03699	1104.19006	498.73798	1222.80383	1110.87769	-341.64362	1212.21960	821.99615	521.56348	1000.36047	902.42279	25.89634	1003.83832	1153.93408	346.64026	1048.31348	1079.43005				103.68446	540.64020	1287.01794	360.63608	588.03400	974.07080	220.95555	124.98321	1569.35657	336.56500	78.56317	912.27545	
132	1.310	130.83519	1798.58081	1200.64075	-3.26718	1685.49475	1170.41687							16.09155	1504.55493	1225.21509	308.48962	1535.23828	1185.25549	138.65956	1455.38647	1098.89844	164.07614	1560.99011	1256.11548	-235.04437	1302.22827	1096.18347	498.62753	1222.47571	1095.43396	-340.36044	1201.89270	815.76385	518.71045	1002.96014	884.42499	23.36584	1003.57623	1144.96729	344.53647	1047.88171	1064.60803	209.30215	1051.75867	1290.87000	101.74695	539.84863	1275.65979	358.00754	586.08612	960.99365	219.81947	129.50537	1566.21472	336.90112	79.02261	908.18109	
133	1.320	129.83289	1798.41162	1190.42773	-4.26051	1685.23218	1159.88403							16.57387	1503.13367	1216.17297	307.64154	1534.34241	1174.33374	137.23015	1455.53003	1088.05151	164.38464	1560.13257	1246.04077	-233.00253	1296.05078	1088.31287	497.85562	1222.52710	1080.08020	-338.59552	1191.71521	809.78601	515.68506	1005.87878	866.28180	22.27230	1002.65314	1134.38037	341.85941	1048.54883	1050.01794				99.82373	539.42053	1263.98743	354.43271	584.62177	948.96460	219.20354	135.15742	1562.30261	336.03787	78.44154	905.16241	
134	1.330	128.90421	1798.38550	1180.24072	-3.52456	1684.16284	1149.51709							15.55715	1502.85986	1206.95691	307.40445	1533.66687	1163.46814	136.61029	1456.10132	1077.14758	164.91539	1559.82751	1235.50183	-231.84680	1290.63635	1080.70178	497.74176	1223.79321	1065.29907	-336.18027	1181.07666	804.54065	512.70728	1008.94360	848.24969	21.08971	1002.28314	1123.71558	339.42358	1049.28308	1035.74121				97.46571	538.50543	1250.41943	350.14993	583.93164	938.42438	218.77913	140.71515	1557.63440	335.96970	78.07030	903.41278	
135	1.340	127.29655	1799.21265	1169.90161	-5.18967	1684.54431	1139.28516							15.21730	1502.74854	1197.39966	307.06165	1533.32825	1152.90417	135.30032	1456.75098	1066.50671	164.49809	1559.96069	1225.17480	-229.44661	1284.75403	1073.11597	498.16620	1224.98572	1049.84180	-334.63660	1168.87305	799.14771	509.64087	1012.53632	830.53741	19.86986	1001.96417	1113.15198	336.95026	1049.68469	1022.62872				95.08213	536.94067	1236.12354	347.40030	584.89758	926.44403	217.01869	148.27402	1553.63208	335.93109	77.57121	901.55182	
136	1.350	126.17963	1799.62573	1160.16919	-5.67434	1684.72498	1129.09229							14.36734	1503.07690	1187.40601	306.73291	1533.15576	1141.22546	134.77458	1457.70691	1056.24500	164.85643	1560.12280	1214.52637	-227.40826	1279.42273	1066.00183	496.93393	1226.43335	1034.14600	-332.69110	1157.48242	794.83124	505.96008	1016.72211	812.62463	18.78924	1001.68896	1102.38916	334.04498	1051.10498	1009.06421				92.44012	535.32776	1220.13782	344.42377	586.67670	916.61328	216.14876	154.89694	1546.71655	336.67783	77.74654	900.28595	
137	1.360	125.36484	1800.25549	1150.40820	-7.20871	1685.40894	1119.09973							14.10056	1503.58142	1177.60413	306.06961	1533.91553	1130.83813	132.81555	1458.68384	1045.38135	164.74263	1560.45496	1203.99438	-225.17610	1274.14783	1059.06519	495.71872	1228.15869	1019.60687	-330.53815	1145.63330	790.68445	502.11111	1021.02002	794.61432	17.45230	1001.51239	1092.11145	332.31006	1052.62439	996.70282				88.80665	533.30951	1202.99036	342.66745	588.20343	903.99738	215.56592	163.12106	1539.87451	335.81732	77.14790	899.96179	
